# xmcd CD database file
#
# Track frame offsets:
#	150
#	15889
#	34929
#	45788
#	57187
#	69832
#	87375
#	101868
#	117751
#	137528
#
# Disc length: 2143 seconds
#
# Revision: 0
# Processed by: cddbd v1.5.2PL0 Copyright (c) Steve Scherf et al.
# Submitted via: CDex 1.70beta3
#
DISCID=72085d0a
DTITLE=Kren Aoki - Twilight Jazz
DYEAR=2012
DGENRE=Jazz
TTITLE0=My Cherie Amour
TTITLE1=Tea for Two
TTITLE2=Moon River
TTITLE3=Fly Me to the Moon
TTITLE4=Smile
TTITLE5=Stardust
TTITLE6=Dream a Little Dream of Me
TTITLE7=Michelle
TTITLE8=Love Me Tender
TTITLE9=All the Things You Are
EXTD=YEAR: 2012
EXTT0=
EXTT1=
EXTT2=
EXTT3=
EXTT4=
EXTT5=
EXTT6=
EXTT7=
EXTT8=
EXTT9=
PLAYORDER=
